# xmcd
#
# Track frame offsets:
#	150
#	15567
#	34060
#	48312
#	64780
#	80648
#	99966
#	120558
#	136140
#	150356
#	170873
#	188990
#	200244
#	215736
#	228828
#	243646
#	260413
#	272382
#
# Disc length: 3824 seconds
#
# Revision: 2
# Processed by: cddbd v1.5.2PL0 Copyright (c) Steve Scherf et al.
# Submitted via: audiograbber 1.83.01
#
DISCID=f90eee12
DTITLE=Various Artist - Promo Only Country Radio 2011 - 01
DYEAR=2011
DGENRE=Country
TTITLE0=LeAnn Rimes - Crazy Women
TTITLE1=Easton Corbin - I Can't Love You Back
TTITLE2=Alan Jackson - Ring of Fire
TTITLE3=Darius Rucker - This
TTITLE4=Chuck Wicks - Old School
TTITLE5=Jason Aldean and Kelly Clarkson - Don't You Wanna Stay
TTITLE6=Point of Grace - Labor of Love
TTITLE7=Josh Thompson - Won't Be Lonely Long
TTITLE8=Blake Wise - I've Got this Feeling
TTITLE9=Sugarland - Little Miss
TTITLE10=Lathan Moore - Love in Your Life
TTITLE11=Katie Arminger - Best Song Ever
TTITLE12=Troy Olsen - Good Hands
TTITLE13=Johnny Patton - Too Late to Go Home Early
TTITLE14=Aaron Tippin - I Wanna Play
TTITLE15=Madonna Nash - Dirty Little Secret
TTITLE16=Danielle Car - Walk of Shame
TTITLE17=Matt Gary - I'm Just Sayin'
EXTD=
EXTT0=
EXTT1=
EXTT2=
EXTT3=
EXTT4=
EXTT5=
EXTT6=
EXTT7=
EXTT8=
EXTT9=
EXTT10=
EXTT11=
EXTT12=
EXTT13=
EXTT14=
EXTT15=
EXTT16=
EXTT17=
PLAYORDER=
